<svg width="118" height="118" viewBox="0 0 118 118" fill="none" xmlns="http://www.w3.org/2000/svg">
<g clip-path="url(#clip0_59_27)">
<path d="M116.979 51.775L108.177 48.3876C106.902 42.4464 104.584 36.8526 101.276 31.7367L105.106 23.1119C105.374 22.5092 105.242 21.8033 104.776 21.3373L96.6632 13.2241C96.196 12.7569 95.489 12.6272 94.8891 12.8945L86.2601 16.7267C81.1451 13.4186 75.5537 11.1001 69.6145 9.82511L66.2245 1.02213C65.9878 0.406547 65.396 0 64.7368 0H53.2632C52.604 0 52.0122 0.406547 51.7755 1.02213L48.386 9.82511C42.4477 11.1001 36.8552 13.4181 31.7392 16.7267L23.1112 12.8945C22.511 12.6272 21.803 12.7569 21.337 13.2241L13.2238 21.3375C12.7576 21.8037 12.6258 22.5097 12.8938 23.1121L16.7256 31.7385C13.417 36.8549 11.0989 42.4475 9.82396 48.3867L1.02144 51.7746C0.405855 52.0122 0 52.6033 0 53.2632V64.7368C0 65.396 0.405855 65.9878 1.02144 66.2245L9.82281 69.6131C11.0978 75.5534 13.4158 81.1469 16.7253 86.2628L12.8936 94.8877C12.6258 95.4908 12.7576 96.1967 13.2236 96.663L21.3368 104.776C21.803 105.242 22.5078 105.373 23.1121 105.106L31.739 101.273C36.857 104.583 42.4484 106.901 48.3858 108.175L51.7753 116.978C52.012 117.594 52.6038 118 53.2629 118H64.7366C65.3957 118 65.9876 117.594 66.2243 116.978L69.6129 108.177C75.5532 106.902 81.1467 104.584 86.2626 101.274L94.8874 105.106C95.4897 105.373 96.1956 105.242 96.6627 104.776L104.776 96.663C105.242 96.1967 105.374 95.4908 105.106 94.8877L101.273 86.2596C104.583 81.1437 106.9 75.5523 108.175 69.614L116.978 66.2245C117.594 65.9878 118 65.396 118 64.7368V53.2632C118 52.6033 117.594 52.0122 116.979 51.775ZM114.811 63.6416L106.215 66.9512C105.703 67.1473 105.33 67.5937 105.224 68.1316C104.019 74.2639 101.636 80.0132 98.1391 85.2216C97.834 85.6763 97.7831 86.2555 98.0052 86.757L101.747 95.1827L95.1824 101.747L86.76 98.0064C86.2605 97.7854 85.6793 97.834 85.2246 98.1403C80.0162 101.638 74.2658 104.021 68.1305 105.227C67.5928 105.333 67.1464 105.706 66.95 106.218L63.6414 114.811H54.3584L51.0488 106.215C50.8527 105.703 50.4063 105.33 49.8684 105.224C43.737 104.02 37.9868 101.636 32.7773 98.1394C32.3226 97.8331 31.7413 97.7842 31.2419 98.0054L22.8173 101.747L16.2531 95.1827L19.9936 86.7602C20.2158 86.2598 20.1649 85.6795 19.8597 85.2248C16.3621 80.0164 13.9786 74.266 12.7733 68.1307C12.6675 67.593 12.2937 67.1466 11.7818 66.9502L3.18923 63.6416V54.3579L11.7841 51.0498C12.296 50.8525 12.6696 50.4065 12.7756 49.8688C13.9798 43.7354 16.3635 37.9847 19.8609 32.7773C20.166 32.3221 20.2169 31.7418 19.9948 31.2407L16.2533 22.8185L22.8176 16.2533L31.2412 19.9948C31.7427 20.2186 32.323 20.1681 32.7777 19.8613C37.9861 16.3649 43.7365 13.9807 49.8688 12.776C50.4065 12.6707 50.8529 12.296 51.0493 11.7846L54.3588 3.18923H63.6419L66.9514 11.7846C67.1475 12.2957 67.5939 12.6707 68.1319 12.776C74.2653 13.9814 80.0155 16.3654 85.2218 19.8613C85.6765 20.1681 86.2589 20.2186 86.7572 19.9948L95.1829 16.2533L101.747 22.818L98.0066 31.2389C97.7844 31.7397 97.8354 32.32 98.1405 32.7754C101.637 37.9822 104.022 43.7342 105.227 49.8695C105.333 50.4072 105.707 50.8532 106.218 51.0504L114.811 54.3579L114.811 63.6416Z" fill="white"/>
<path d="M35.625 55.5938C38.7798 55.5938 41.3438 53.0298 41.3438 49.875C41.3438 46.7202 38.7798 44.1562 35.625 44.1562C32.4702 44.1562 29.9062 46.7202 29.9062 49.875C29.9062 53.0298 32.4702 55.5938 35.625 55.5938ZM35.625 46.0625C37.7314 46.0625 39.4375 47.7686 39.4375 49.875C39.4375 51.9814 37.7314 53.6875 35.625 53.6875C33.5186 53.6875 31.8125 51.9814 31.8125 49.875C31.8125 47.7686 33.5186 46.0625 35.625 46.0625Z" fill="white"/>
<path d="M81.375 55.5938C84.5298 55.5938 87.0938 53.0298 87.0938 49.875C87.0938 46.7202 84.5298 44.1562 81.375 44.1562C78.2202 44.1562 75.6562 46.7202 75.6562 49.875C75.6562 53.0298 78.2202 55.5938 81.375 55.5938ZM81.375 46.0625C83.4814 46.0625 85.1875 47.7686 85.1875 49.875C85.1875 51.9814 83.4814 53.6875 81.375 53.6875C79.2686 53.6875 77.5625 51.9814 77.5625 49.875C77.5625 47.7686 79.2686 46.0625 81.375 46.0625Z" fill="white"/>
<path d="M81.375 56.5469C77.6959 56.5469 74.7031 59.5397 74.7031 63.2188V65.125H68.0313C66.4586 65.125 65.1719 66.4117 65.1719 67.9844C65.1719 68.318 65.2386 68.642 65.3434 68.9375H51.647C51.7519 68.642 51.8186 68.318 51.8186 67.9844C51.8186 66.4117 50.5319 65.125 48.9592 65.125H42.2874V63.2188C42.2874 59.5397 39.2945 56.5469 35.6155 56.5469C31.9364 56.5469 28.9436 59.5397 28.9436 63.2188V71.7969C28.9436 74.8088 30.9547 77.3631 33.7092 78.1923V84.1875H29.9063V86.0938H87.0938V84.1875H83.2813V78.1923C86.0358 77.3727 88.0469 74.8183 88.0469 71.7969V63.2188C88.0469 59.5397 85.0541 56.5469 81.375 56.5469ZM68.0313 70.8438H68.5936L68.0789 71.3584C67.183 72.2544 65.982 72.75 64.7049 72.75H52.2856C51.0084 72.75 49.817 72.2544 48.9116 71.3584L48.3969 70.8438H68.0217H68.0313ZM35.625 84.1875V78.4688H40.3906C40.9149 78.4688 41.3438 78.8977 41.3438 79.4219V83.2344C41.3438 83.568 41.4105 83.892 41.5153 84.1875H35.625ZM45.1563 83.2344C45.1563 83.7586 44.7274 84.1875 44.2031 84.1875C43.6789 84.1875 43.25 83.7586 43.25 83.2344V79.4219C43.25 77.8492 41.9633 76.5625 40.3906 76.5625H35.625C32.9944 76.5625 30.8594 74.4275 30.8594 71.7969V63.2188C30.8594 60.5881 32.9944 58.4531 35.625 58.4531C38.2556 58.4531 40.3906 60.5881 40.3906 63.2188V66.0781C40.3906 66.6023 40.8195 67.0312 41.3438 67.0312H48.9688C49.493 67.0312 49.9219 67.4602 49.9219 67.9844C49.9219 68.5086 49.493 68.9375 48.9688 68.9375H38.4844V62.2656H36.5781V69.8906C36.5781 70.4148 37.007 70.8438 37.5313 70.8438H38.2556L42.5161 72.9788C44.1459 73.7889 45.1467 75.4283 45.1467 77.2392V83.2344H45.1563ZM53.8297 84.1875H46.8814C46.9863 83.892 47.053 83.568 47.053 83.2344V77.2392C47.053 74.6944 45.6424 72.4069 43.3644 71.2727L42.5161 70.8438H45.7091L47.5677 72.7023C48.8258 73.9605 50.5033 74.6562 52.2856 74.6562H57.5374V80.4703C55.6692 80.8516 54.2014 82.3194 53.8202 84.1875H53.8297ZM55.8122 84.1875C56.203 83.0819 57.2514 82.2812 58.5 82.2812C59.7486 82.2812 60.7875 83.0819 61.1878 84.1875H55.8217H55.8122ZM63.1608 84.1875C62.7795 82.3194 61.3117 80.8516 59.4436 80.4703V74.6562H64.6953C66.4777 74.6562 68.1552 73.9605 69.4133 72.7023L71.2719 70.8438H74.4649L73.6166 71.2727C71.3386 72.4069 69.928 74.6944 69.928 77.2392V83.2344C69.928 83.568 69.9947 83.892 70.0995 84.1875H63.1513H63.1608ZM81.3655 84.1875H75.4752C75.58 83.892 75.6467 83.568 75.6467 83.2344V79.4219C75.6467 78.8977 76.0756 78.4688 76.5999 78.4688H81.3655V84.1875ZM86.1311 71.7969C86.1311 74.4275 83.9961 76.5625 81.3655 76.5625H76.5999C75.0272 76.5625 73.7405 77.8492 73.7405 79.4219V83.2344C73.7405 83.7586 73.3116 84.1875 72.7874 84.1875C72.2631 84.1875 71.8342 83.7586 71.8342 83.2344V77.2392C71.8342 75.4187 72.8445 73.7889 74.4649 72.9788L78.7253 70.8438H79.4497C79.9739 70.8438 80.4028 70.4148 80.4028 69.8906V62.2656H78.4966V68.9375H68.0122C67.488 68.9375 67.0591 68.5086 67.0591 67.9844C67.0591 67.4602 67.488 67.0312 68.0122 67.0312H75.6372C76.1614 67.0312 76.5903 66.6023 76.5903 66.0781V63.2188C76.5903 60.5881 78.7253 58.4531 81.3559 58.4531C83.9866 58.4531 86.1216 60.5881 86.1216 63.2188V71.7969H86.1311Z" fill="white"/>
<path d="M61.3594 49.875C62.4459 49.875 63.523 49.7035 64.5809 49.3603L72.5205 51.7431C72.6158 51.7717 72.7016 51.7813 72.7969 51.7813C73.0828 51.7813 73.3592 51.6478 73.5403 51.4191C73.7786 51.1141 73.8167 50.6947 73.6261 50.3516L70.395 44.6996C71.3481 43.0888 71.8438 41.2683 71.8438 39.3811C71.8438 33.5956 67.1448 28.8967 61.3594 28.8967C55.5739 28.8967 50.875 33.5956 50.875 39.3811C50.875 45.1666 55.5739 49.8655 61.3594 49.8655V49.875ZM61.3594 30.8125C66.0869 30.8125 69.9375 34.6631 69.9375 39.3906C69.9375 41.0967 69.4419 42.7361 68.4888 44.1563C68.2886 44.4613 68.2695 44.8425 68.4506 45.1571L70.7763 49.2269L64.8288 47.4446C64.743 47.416 64.6477 47.4064 64.5523 47.4064C64.4475 47.4064 64.3331 47.4255 64.2283 47.4636C63.2847 47.7972 62.3125 47.9688 61.3498 47.9688C56.6223 47.9688 52.7717 44.1181 52.7717 39.3906C52.7717 34.6631 56.6223 30.8125 61.3498 30.8125H61.3594Z" fill="white"/>
<path d="M56.5938 38.4375H58.5V40.3438H56.5938V38.4375Z" fill="white"/>
<path d="M60.4062 38.4375H62.3125V40.3438H60.4062V38.4375Z" fill="white"/>
<path d="M64.2188 38.4375H66.125V40.3438H64.2188V38.4375Z" fill="white"/>
<path d="M43.25 56.5469H45.1562V58.4531H43.25V56.5469Z" fill="white"/>
<path d="M47.0625 56.5469H48.9688V58.4531H47.0625V56.5469Z" fill="white"/>
<path d="M50.875 56.5469H52.7812V58.4531H50.875V56.5469Z" fill="white"/>
</g>
<defs>
<clipPath id="clip0_59_27">
<rect width="118" height="118" fill="white"/>
</clipPath>
</defs>
</svg>
