<svg width="118" height="118" viewBox="0 0 118 118" fill="none" xmlns="http://www.w3.org/2000/svg">
<g clip-path="url(#clip0_59_3)">
<path d="M116.979 51.775L108.177 48.3876C106.902 42.4464 104.584 36.8526 101.276 31.7367L105.106 23.1119C105.374 22.5092 105.242 21.8033 104.776 21.3373L96.6632 13.2241C96.196 12.7569 95.489 12.6272 94.8891 12.8945L86.2601 16.7267C81.1451 13.4186 75.5537 11.1001 69.6145 9.82511L66.2245 1.02213C65.9878 0.406547 65.396 0 64.7368 0H53.2632C52.604 0 52.0122 0.406547 51.7755 1.02213L48.386 9.82511C42.4477 11.1001 36.8552 13.4181 31.7392 16.7267L23.1112 12.8945C22.511 12.6272 21.803 12.7569 21.337 13.2241L13.2238 21.3375C12.7576 21.8037 12.6258 22.5097 12.8938 23.1121L16.7256 31.7385C13.417 36.8549 11.0989 42.4475 9.82396 48.3867L1.02144 51.7746C0.405855 52.0122 0 52.6033 0 53.2632V64.7368C0 65.396 0.405855 65.9878 1.02144 66.2245L9.82281 69.6131C11.0978 75.5534 13.4158 81.1469 16.7253 86.2628L12.8936 94.8877C12.6258 95.4908 12.7576 96.1967 13.2236 96.663L21.3368 104.776C21.803 105.242 22.5078 105.373 23.1121 105.106L31.739 101.273C36.857 104.583 42.4484 106.901 48.3858 108.175L51.7753 116.978C52.012 117.594 52.6038 118 53.2629 118H64.7366C65.3957 118 65.9876 117.594 66.2243 116.978L69.6129 108.177C75.5532 106.902 81.1467 104.584 86.2626 101.274L94.8874 105.106C95.4897 105.373 96.1956 105.242 96.6627 104.776L104.776 96.663C105.242 96.1967 105.374 95.4908 105.106 94.8877L101.273 86.2596C104.583 81.1437 106.9 75.5523 108.175 69.614L116.978 66.2245C117.594 65.9878 118 65.396 118 64.7368V53.2632C118 52.6033 117.594 52.0122 116.979 51.775ZM114.811 63.6416L106.215 66.9512C105.703 67.1473 105.33 67.5937 105.224 68.1316C104.019 74.2639 101.636 80.0132 98.1391 85.2216C97.834 85.6763 97.7831 86.2555 98.0052 86.757L101.747 95.1827L95.1824 101.747L86.76 98.0064C86.2605 97.7854 85.6793 97.834 85.2246 98.1403C80.0162 101.638 74.2658 104.021 68.1305 105.227C67.5928 105.333 67.1464 105.706 66.95 106.218L63.6414 114.811H54.3584L51.0488 106.215C50.8527 105.703 50.4063 105.33 49.8684 105.224C43.737 104.02 37.9868 101.636 32.7773 98.1394C32.3226 97.8331 31.7413 97.7842 31.2419 98.0054L22.8173 101.747L16.2531 95.1827L19.9936 86.7602C20.2158 86.2598 20.1649 85.6795 19.8597 85.2248C16.3621 80.0164 13.9786 74.266 12.7733 68.1307C12.6675 67.593 12.2937 67.1466 11.7818 66.9502L3.18923 63.6416V54.3579L11.7841 51.0498C12.296 50.8525 12.6696 50.4065 12.7756 49.8688C13.9798 43.7354 16.3635 37.9847 19.8609 32.7773C20.166 32.3221 20.2169 31.7418 19.9948 31.2407L16.2533 22.8185L22.8176 16.2533L31.2412 19.9948C31.7427 20.2186 32.323 20.1681 32.7777 19.8613C37.9861 16.3649 43.7365 13.9807 49.8688 12.776C50.4065 12.6707 50.8529 12.296 51.0493 11.7846L54.3588 3.18923H63.6419L66.9514 11.7846C67.1475 12.2957 67.5939 12.6707 68.1319 12.776C74.2653 13.9814 80.0155 16.3654 85.2218 19.8613C85.6765 20.1681 86.2589 20.2186 86.7572 19.9948L95.1829 16.2533L101.747 22.818L98.0066 31.2389C97.7844 31.7397 97.8354 32.32 98.1405 32.7754C101.637 37.9822 104.022 43.7342 105.227 49.8695C105.333 50.4072 105.707 50.8532 106.218 51.0504L114.811 54.3579L114.811 63.6416Z" fill="white"/>
<path d="M41.5956 81.0947C40.3893 81.0953 39.1997 80.8121 38.123 80.268C37.0463 79.7239 36.1128 78.9341 35.3978 77.9624C34.6827 76.9908 34.2063 75.8646 34.007 74.6748C33.8077 73.485 33.8911 72.265 34.2505 71.1134C34.6099 69.9618 35.2351 68.9109 36.0757 68.0456C36.9163 67.1803 37.9487 66.5249 39.0894 66.1324C40.2301 65.7398 41.4472 65.6212 42.6422 65.7859C43.8373 65.9507 44.9768 66.3943 45.9687 67.0809C46.0683 67.15 46.1533 67.238 46.2189 67.3399C46.2845 67.4418 46.3293 67.5557 46.3509 67.6749C46.3725 67.7942 46.3704 67.9165 46.3447 68.035C46.319 68.1534 46.2702 68.2656 46.2011 68.3652C46.132 68.4648 46.044 68.5498 45.9421 68.6154C45.8402 68.681 45.7263 68.7258 45.6071 68.7474C45.4878 68.769 45.3655 68.7669 45.247 68.7411C45.1286 68.7154 45.0164 68.6667 44.9168 68.5976C43.7272 67.7759 42.2752 67.4241 40.8414 67.6103C39.4076 67.7965 38.0936 68.5074 37.1533 69.6057C36.2129 70.704 35.7129 72.1118 35.7499 73.5572C35.7868 75.0026 36.3581 76.383 37.3533 77.4318C38.3485 78.4807 39.697 79.1235 41.1385 79.2362C42.58 79.3489 44.0121 78.9235 45.1582 78.042C46.3043 77.1606 47.0831 75.8857 47.3443 74.4636C47.6054 73.0415 47.3303 71.5731 46.572 70.342C46.4434 70.1338 46.4027 69.883 46.4589 69.6448C46.5151 69.4066 46.6637 69.2005 46.8719 69.0718C47.0801 68.9431 47.3309 68.9024 47.5691 68.9587C47.8073 69.0149 48.0134 69.1635 48.1421 69.3717C48.8604 70.5366 49.2547 71.8722 49.2843 73.2405C49.3138 74.6088 48.9776 75.9601 48.3104 77.155C47.6431 78.3499 46.669 79.3451 45.4885 80.0376C44.3081 80.7302 42.9642 81.0951 41.5956 81.0947ZM41.5956 77.4033C40.8047 77.4033 40.0315 77.1688 39.3739 76.7294C38.7163 76.2899 38.2037 75.6654 37.901 74.9347C37.5984 74.2039 37.5192 73.3999 37.6735 72.6241C37.8278 71.8484 38.2086 71.1358 38.7679 70.5766C39.3272 70.0173 40.0397 69.6364 40.8155 69.4821C41.5912 69.3278 42.3953 69.407 43.126 69.7097C43.8567 70.0124 44.4813 70.5249 44.9207 71.1826C45.3601 71.8402 45.5947 72.6134 45.5947 73.4043C45.5935 74.4645 45.1718 75.481 44.4221 76.2307C43.6724 76.9804 42.6559 77.4021 41.5956 77.4033ZM41.5956 71.251C41.1698 71.251 40.7534 71.3773 40.3993 71.6139C40.0452 71.8505 39.7692 72.1868 39.6062 72.5803C39.4433 72.9737 39.4006 73.4067 39.4837 73.8244C39.5668 74.2421 39.7719 74.6258 40.073 74.9269C40.3742 75.2281 40.7579 75.4332 41.1756 75.5162C41.5933 75.5993 42.0262 75.5567 42.4197 75.3937C42.8132 75.2307 43.1495 74.9547 43.3861 74.6006C43.6227 74.2465 43.749 73.8302 43.749 73.4043C43.7483 72.8334 43.5212 72.2861 43.1176 71.8824C42.7139 71.4787 42.1665 71.2516 41.5956 71.251Z" fill="white"/>
<path d="M80.7862 73.5274C80.5414 73.5274 80.3067 73.6246 80.1336 73.7977C79.9605 73.9707 79.8633 74.2055 79.8633 74.4502V79.0849C79.8628 79.4927 79.7007 79.8836 79.4123 80.172C79.124 80.4603 78.733 80.6225 78.3252 80.623H54.217C54.1342 80.4311 54.0241 80.2522 53.8903 80.0917L52.5277 78.4567C52.664 78.1633 52.7881 77.8649 52.9 77.5616L55.0182 77.369C55.5542 77.3226 56.0532 77.0764 56.416 76.6791C56.7788 76.2818 56.9789 75.7626 56.9766 75.2245V71.584C56.9789 71.046 56.7788 70.5268 56.416 70.1295C56.0532 69.7322 55.5543 69.4859 55.0183 69.4395L52.9 69.2469C52.7883 68.9442 52.6642 68.6458 52.5277 68.3518L53.8903 66.7166C54.2366 66.3048 54.4152 65.7779 54.3909 65.2404C54.3665 64.703 54.1409 64.1944 53.7588 63.8156L51.1845 61.2414C50.8058 60.8592 50.2971 60.6335 49.7596 60.6091C49.2221 60.5847 48.6951 60.7634 48.2833 61.1097L46.6483 62.4725C46.3547 62.3361 46.0563 62.212 45.7531 62.1L45.5605 59.9819C45.5142 59.4458 45.2679 58.9468 44.8706 58.584C44.4733 58.2212 43.9541 58.0211 43.4161 58.0235H39.7754C39.2374 58.0211 38.7181 58.2211 38.3209 58.5839C37.9236 58.9468 37.6773 59.4457 37.631 59.9818L37.4383 62.1C37.1358 62.2117 36.8374 62.3359 36.5432 62.4725L34.9081 61.1097C34.4963 60.7635 33.9693 60.5848 33.4318 60.6092C32.8943 60.6336 32.3857 60.8593 32.0069 61.2414L29.4327 63.8156C29.0506 64.1944 28.8249 64.703 28.8006 65.2405C28.7762 65.778 28.9549 66.3049 29.3011 66.7167L30.6637 68.3518C30.5276 68.6454 30.4035 68.9437 30.2914 69.2469L28.1732 69.4395C27.6372 69.4859 27.1382 69.7322 26.7754 70.1295C26.4126 70.5268 26.2125 71.046 26.2149 71.584V75.2245C26.2125 75.7626 26.4126 76.2818 26.7754 76.6791C27.1382 77.0764 27.6371 77.3227 28.1732 77.3691L30.2914 77.5617C30.4031 77.8644 30.5272 78.1628 30.6637 78.4569L29.3011 80.0919C28.9549 80.5037 28.7762 81.0307 28.8006 81.5682C28.825 82.1057 29.0506 82.6143 29.4327 82.9931L32.0069 85.5673C32.3857 85.9493 32.8944 86.175 33.4318 86.1994C33.9693 86.2238 34.4963 86.0451 34.9081 85.6989L36.5432 84.3362C36.8368 84.4725 37.1352 84.5967 37.4383 84.7086L37.6309 86.8268C37.6772 87.3628 37.9235 87.8618 38.3208 88.2246C38.7181 88.5875 39.2373 88.7876 39.7754 88.7852H43.4161C43.9541 88.7876 44.4733 88.5875 44.8706 88.2247C45.2679 87.8619 45.5141 87.3629 45.5604 86.8269L45.7531 84.7086C46.0557 84.5969 46.3541 84.4727 46.6483 84.3362L48.2834 85.6989C48.6952 86.0452 49.2222 86.2239 49.7597 86.1995C50.2972 86.1751 50.8058 85.9494 51.1845 85.5673L53.7588 82.9931C53.9129 82.8387 54.0429 82.6619 54.1444 82.4688H78.3252C79.2223 82.4678 80.0824 82.1109 80.7168 81.4766C81.3511 80.8422 81.708 79.9821 81.709 79.085V74.4502C81.709 74.2055 81.6118 73.9707 81.4387 73.7977C81.2656 73.6246 81.0309 73.5274 80.7862 73.5274ZM52.4536 81.6878L49.8792 84.2622C49.8251 84.3168 49.7525 84.3489 49.6757 84.3524C49.599 84.3559 49.5237 84.3304 49.4649 84.2809L47.3679 82.5337C47.2272 82.4165 47.0548 82.3437 46.8727 82.3248C46.6906 82.3058 46.507 82.3414 46.3452 82.4271C45.792 82.7201 45.2127 82.9611 44.6149 83.147C44.4404 83.2012 44.2859 83.3059 44.171 83.4479C44.056 83.59 43.9858 83.7629 43.9693 83.9449L43.7222 86.6602C43.7155 86.7366 43.6804 86.8078 43.6237 86.8596C43.5669 86.9113 43.4928 86.9398 43.4161 86.9395H39.7754C39.6985 86.9398 39.6243 86.9112 39.5676 86.8594C39.5108 86.8075 39.4757 86.7362 39.4691 86.6597L39.2221 83.9445C39.2056 83.7626 39.1354 83.5896 39.0205 83.4476C38.9055 83.3055 38.751 83.2008 38.5765 83.1467C37.9787 82.9608 37.3995 82.7197 36.8462 82.4267C36.6844 82.341 36.5008 82.3054 36.3187 82.3244C36.1366 82.3434 35.9643 82.4161 35.8236 82.5333L33.7266 84.2806C33.6678 84.33 33.5926 84.3556 33.5158 84.3521C33.439 84.3487 33.3663 84.3164 33.3122 84.2619L30.7379 81.688C30.6833 81.6339 30.651 81.5612 30.6475 81.4844C30.644 81.4077 30.6695 81.3324 30.719 81.2735L32.4663 79.1764C32.5835 79.0358 32.6562 78.8634 32.6752 78.6813C32.6942 78.4992 32.6585 78.3155 32.5728 78.1537C32.2797 77.6005 32.0387 77.0213 31.8529 76.4235C31.7987 76.249 31.694 76.0945 31.552 75.9796C31.41 75.8647 31.2371 75.7945 31.0552 75.7779L28.3398 75.5309C28.2633 75.5242 28.1921 75.4889 28.1404 75.4322C28.0887 75.3754 28.0602 75.3013 28.0606 75.2245V71.584C28.0602 71.5071 28.0888 71.4329 28.1407 71.3762C28.1925 71.3194 28.2638 71.2843 28.3404 71.2777L31.0557 71.0307C31.2376 71.0142 31.4105 70.944 31.5525 70.829C31.6945 70.7141 31.7992 70.5596 31.8534 70.3851C32.0392 69.7873 32.2802 69.208 32.5733 68.6547C32.659 68.4929 32.6946 68.3093 32.6756 68.1272C32.6567 67.9451 32.584 67.7727 32.4668 67.6321L30.7195 65.535C30.67 65.4761 30.6445 65.4008 30.648 65.3241C30.6515 65.2473 30.6838 65.1746 30.7384 65.1206L33.3122 62.5464C33.3663 62.4919 33.439 62.4597 33.5157 62.4562C33.5925 62.4528 33.6677 62.4783 33.7265 62.5277L35.8236 64.275C35.9642 64.3922 36.1366 64.4649 36.3187 64.4839C36.5008 64.5029 36.6844 64.4673 36.8462 64.3817C37.3994 64.0886 37.9787 63.8476 38.5765 63.6618C38.751 63.6077 38.9055 63.503 39.0205 63.3609C39.1354 63.2189 39.2056 63.046 39.2221 62.864L39.4692 60.1486C39.4759 60.0721 39.511 60.0009 39.5678 59.9491C39.6245 59.8974 39.6986 59.8688 39.7754 59.8692H43.4161C43.4929 59.8688 43.5671 59.8974 43.6239 59.9493C43.6806 60.0011 43.7158 60.0724 43.7223 60.149L43.9693 62.8642C43.9858 63.0462 44.056 63.2192 44.171 63.3612C44.2859 63.5032 44.4404 63.6079 44.6149 63.6621C45.2127 63.8479 45.792 64.0889 46.3452 64.3819C46.507 64.4676 46.6907 64.5032 46.8728 64.4842C47.0549 64.4652 47.2272 64.3924 47.3679 64.2752L49.4649 62.528C49.5237 62.4785 49.599 62.4529 49.6757 62.4564C49.7525 62.4598 49.8252 62.4921 49.8792 62.5467L52.4535 65.1209C52.5081 65.175 52.5404 65.2477 52.5439 65.3244C52.5474 65.4012 52.5219 65.4765 52.4725 65.5353L50.7252 67.6324C50.608 67.7731 50.5353 67.9454 50.5163 68.1275C50.4973 68.3096 50.5329 68.4933 50.6186 68.6551C50.9117 69.2083 51.1527 69.7875 51.3386 70.3854C51.3927 70.5599 51.4974 70.7144 51.6394 70.8293C51.7814 70.9442 51.9543 71.0144 52.1363 71.031L54.8516 71.2779C54.928 71.2846 54.9992 71.3198 55.0509 71.3765C55.1026 71.4332 55.1312 71.5072 55.1309 71.584V75.2245C55.1312 75.3014 55.1026 75.3756 55.0508 75.4324C54.999 75.4891 54.9277 75.5243 54.8511 75.5309L52.1358 75.7779C51.9539 75.7945 51.7809 75.8647 51.6389 75.9796C51.4969 76.0945 51.3922 76.249 51.3381 76.4235C51.1522 77.0213 50.9112 77.6005 50.6181 78.1537C50.5324 78.3155 50.4968 78.4992 50.5158 78.6813C50.5347 78.8634 50.6075 79.0358 50.7247 79.1764L52.472 81.2734C52.5215 81.3322 52.5471 81.4075 52.5437 81.4843C52.5403 81.5611 52.5081 81.6338 52.4536 81.688V81.6878Z" fill="white"/>
<path d="M60.2262 50.995V52.6561H57.4576C57.0499 52.6566 56.6589 52.8188 56.3706 53.1071C56.0822 53.3955 55.92 53.7864 55.9196 54.1942V59.3622C55.92 59.77 56.0822 60.1609 56.3706 60.4492C56.6589 60.7376 57.0499 60.8998 57.4576 60.9003H73.4537C73.8615 60.8998 74.2525 60.7376 74.5408 60.4493C74.8292 60.1609 74.9914 59.77 74.9918 59.3622V44.4735C74.9914 44.0657 74.8292 43.6748 74.5408 43.3864C74.2525 43.0981 73.8615 42.9359 73.4537 42.9354H70.3776C69.9698 42.9359 69.5788 43.0981 69.2905 43.3864C69.0021 43.6748 68.8399 44.0657 68.8395 44.4735V46.1347H66.0709C65.6631 46.1351 65.2722 46.2973 64.9838 46.5857C64.6955 46.874 64.5333 47.265 64.5328 47.6727V49.4569H61.7643C61.3565 49.4574 60.9655 49.6196 60.6772 49.9079C60.3888 50.1963 60.2267 50.5872 60.2262 50.995ZM60.2262 59.0546H57.7653V54.5018H60.2262V59.0546ZM70.6852 47.0575V44.7811H73.1461V59.0546H70.6852V47.0575ZM66.3785 50.3798V47.9804H68.8395V59.0546H66.3785V50.3798ZM62.0719 53.579V51.3026H64.5328V59.0546H62.0719V53.579Z" fill="white"/>
<path d="M74.6047 38.0491C75.1144 38.0491 75.5276 37.6359 75.5276 37.1263C75.5276 36.6166 75.1144 36.2034 74.6047 36.2034C74.0951 36.2034 73.6819 36.6166 73.6819 37.1263C73.6819 37.6359 74.0951 38.0491 74.6047 38.0491Z" fill="white"/>
<path d="M64.884 38.0491C65.3937 38.0491 65.8069 37.6359 65.8069 37.1263C65.8069 36.6166 65.3937 36.2034 64.884 36.2034C64.3744 36.2034 63.9612 36.6166 63.9612 37.1263C63.9612 37.6359 64.3744 38.0491 64.884 38.0491Z" fill="white"/>
<path d="M55.1633 38.0491C55.673 38.0491 56.0862 37.6359 56.0862 37.1263C56.0862 36.6166 55.673 36.2034 55.1633 36.2034C54.6537 36.2034 54.2405 36.6166 54.2405 37.1263C54.2405 37.6359 54.6537 38.0491 55.1633 38.0491Z" fill="white"/>
<path d="M45.4426 38.0491C45.9523 38.0491 46.3655 37.6359 46.3655 37.1263C46.3655 36.6166 45.9523 36.2034 45.4426 36.2034C44.933 36.2034 44.5198 36.6166 44.5198 37.1263C44.5198 37.6359 44.933 38.0491 45.4426 38.0491Z" fill="white"/>
<path d="M38.2161 51.0919C38.2161 51.3367 38.3133 51.5714 38.4864 51.7445C38.6594 51.9176 38.8942 52.0148 39.1389 52.0148H52.6741C52.9188 52.0148 53.1536 51.9176 53.3266 51.7445C53.4997 51.5714 53.5969 51.3367 53.5969 51.0919C53.5969 50.8472 53.4997 50.6124 53.3266 50.4394C53.1536 50.2663 52.9188 50.1691 52.6741 50.1691H39.1389C38.8942 50.1691 38.6594 50.2663 38.4864 50.4394C38.3133 50.6124 38.2161 50.8472 38.2161 51.0919Z" fill="white"/>
<path d="M44.1495 54.3528C43.9048 54.3528 43.6701 54.4501 43.497 54.6231C43.3239 54.7962 43.2267 55.0309 43.2267 55.2757C43.2267 55.5204 43.3239 55.7552 43.497 55.9282C43.6701 56.1013 43.9048 56.1985 44.1495 56.1985H48.9649C49.2096 56.1985 49.4443 56.1013 49.6174 55.9282C49.7905 55.7552 49.8877 55.5204 49.8877 55.2757C49.8877 55.0309 49.7905 54.7962 49.6174 54.6231C49.4443 54.4501 49.2096 54.3528 48.9649 54.3528H44.1495Z" fill="white"/>
<path d="M39.1389 56.1985H41.2922C41.537 56.1985 41.7717 56.1013 41.9448 55.9282C42.1179 55.7552 42.2151 55.5204 42.2151 55.2757C42.2151 55.0309 42.1179 54.7962 41.9448 54.6231C41.7717 54.4501 41.537 54.3528 41.2922 54.3528H39.1389C38.8942 54.3528 38.6594 54.4501 38.4864 54.6231C38.3133 54.7962 38.2161 55.0309 38.2161 55.2757C38.2161 55.5204 38.3133 55.7552 38.4864 55.9282C38.6594 56.1013 38.8942 56.1985 39.1389 56.1985Z" fill="white"/>
<path d="M41.6614 46.9079C41.6614 47.1526 41.7586 47.3874 41.9317 47.5604C42.1047 47.7335 42.3395 47.8307 42.5842 47.8307H52.6741C52.9188 47.8307 53.1536 47.7335 53.3266 47.5604C53.4997 47.3874 53.5969 47.1526 53.5969 46.9079C53.5969 46.6631 53.4997 46.4284 53.3266 46.2553C53.1536 46.0822 52.9188 45.985 52.6741 45.985H42.5842C42.3395 45.985 42.1047 46.0822 41.9317 46.2553C41.7586 46.4284 41.6614 46.6631 41.6614 46.9079Z" fill="white"/>
<path d="M40.0618 47.8313C40.5714 47.8313 40.9846 47.4182 40.9846 46.9085C40.9846 46.3988 40.5714 45.9856 40.0618 45.9856C39.5521 45.9856 39.1389 46.3988 39.1389 46.9085C39.1389 47.4182 39.5521 47.8313 40.0618 47.8313Z" fill="white"/>
<path d="M51.7512 56.1985C52.2609 56.1985 52.6741 55.7854 52.6741 55.2757C52.6741 54.766 52.2609 54.3528 51.7512 54.3528C51.2415 54.3528 50.8284 54.766 50.8284 55.2757C50.8284 55.7854 51.2415 56.1985 51.7512 56.1985Z" fill="white"/>
<path d="M73.7614 70.7588C73.7614 70.514 73.6641 70.2793 73.4911 70.1062C73.318 69.9332 73.0833 69.8359 72.8385 69.8359H59.3033C59.0586 69.8359 58.8239 69.9332 58.6508 70.1062C58.4777 70.2793 58.3805 70.514 58.3805 70.7588C58.3805 71.0035 58.4777 71.2383 58.6508 71.4113C58.8239 71.5844 59.0586 71.6816 59.3033 71.6816H72.8385C73.0833 71.6816 73.318 71.5844 73.4911 71.4113C73.6641 71.2383 73.7614 71.0035 73.7614 70.7588Z" fill="white"/>
<path d="M64.3141 74.0195C64.0693 74.0195 63.8346 74.1168 63.6615 74.2898C63.4885 74.4629 63.3912 74.6976 63.3912 74.9424C63.3912 75.1871 63.4885 75.4219 63.6615 75.5949C63.8346 75.768 64.0693 75.8652 64.3141 75.8652H69.1293C69.374 75.8652 69.6088 75.768 69.7818 75.5949C69.9549 75.4219 70.0521 75.1871 70.0521 74.9424C70.0521 74.6976 69.9549 74.4629 69.7818 74.2898C69.6088 74.1168 69.374 74.0195 69.1293 74.0195H64.3141Z" fill="white"/>
<path d="M59.3033 74.0195C59.0586 74.0195 58.8239 74.1168 58.6508 74.2898C58.4777 74.4629 58.3805 74.6976 58.3805 74.9424C58.3805 75.1871 58.4777 75.4219 58.6508 75.5949C58.8239 75.768 59.0586 75.8652 59.3033 75.8652H61.4567C61.7014 75.8652 61.9361 75.768 62.1092 75.5949C62.2823 75.4219 62.3795 75.1871 62.3795 74.9424C62.3795 74.6976 62.2823 74.4629 62.1092 74.2898C61.9361 74.1168 61.7014 74.0195 61.4567 74.0195H59.3033Z" fill="white"/>
<path d="M72.8385 65.6523H62.7487C62.5039 65.6523 62.2692 65.7496 62.0961 65.9226C61.923 66.0957 61.8258 66.3304 61.8258 66.5752C61.8258 66.82 61.923 67.0547 62.0961 67.2278C62.2692 67.4008 62.5039 67.498 62.7487 67.498H72.8385C73.0833 67.498 73.318 67.4008 73.4911 67.2278C73.6641 67.0547 73.7614 66.82 73.7614 66.5752C73.7614 66.3304 73.6641 66.0957 73.4911 65.9226C73.318 65.7496 73.0833 65.6523 72.8385 65.6523Z" fill="white"/>
<path d="M60.2262 67.498C60.4087 67.498 60.5871 67.4439 60.7389 67.3425C60.8907 67.2411 61.009 67.097 61.0788 66.9284C61.1486 66.7597 61.1669 66.5742 61.1313 66.3952C61.0957 66.2161 61.0078 66.0517 60.8787 65.9226C60.7497 65.7936 60.5852 65.7057 60.4062 65.6701C60.2272 65.6345 60.0417 65.6527 59.873 65.7226C59.7044 65.7924 59.5603 65.9107 59.4589 66.0625C59.3575 66.2142 59.3033 66.3927 59.3033 66.5752C59.3033 66.82 59.4006 67.0547 59.5736 67.2278C59.7467 67.4008 59.9814 67.498 60.2262 67.498Z" fill="white"/>
<path d="M70.9928 74.9424C70.9928 75.1249 71.0469 75.3033 71.1483 75.4551C71.2497 75.6069 71.3939 75.7251 71.5625 75.795C71.7311 75.8648 71.9167 75.8831 72.0957 75.8475C72.2747 75.8119 72.4391 75.724 72.5682 75.5949C72.6973 75.4659 72.7852 75.3014 72.8208 75.1224C72.8564 74.9434 72.8381 74.7579 72.7683 74.5892C72.6984 74.4206 72.5801 74.2765 72.4284 74.1751C72.2766 74.0737 72.0982 74.0195 71.9156 74.0195C71.6709 74.0195 71.4362 74.1168 71.2631 74.2898C71.09 74.4629 70.9928 74.6976 70.9928 74.9424Z" fill="white"/>
<path d="M80.7862 30.2148C79.9595 30.2159 79.1534 30.4727 78.4784 30.95C77.8035 31.4274 77.2928 32.1019 77.0164 32.881H42.0674C41.8227 32.8812 41.5881 32.9786 41.4152 33.1517L32.802 41.765C32.6288 41.9379 32.5315 42.1725 32.5312 42.4172V58.8293C32.5312 59.074 32.6285 59.3088 32.8015 59.4818C32.9746 59.6549 33.2093 59.7521 33.4541 59.7521C33.6989 59.7521 33.9336 59.6549 34.1067 59.4818C34.2797 59.3088 34.377 59.074 34.377 58.8293V43.34H39.6064C40.5036 43.339 41.3637 42.9822 41.998 42.3478C42.6324 41.7134 42.9892 40.8533 42.9902 39.9562V34.7267H76.7871V65.7491C76.7872 65.8836 76.8166 66.0165 76.8733 66.1385L79.3918 71.5495C79.5154 71.8151 79.7123 72.0399 79.9594 72.1974C80.2064 72.3548 80.4933 72.4385 80.7862 72.4385C81.0792 72.4385 81.3661 72.3548 81.6131 72.1974C81.8601 72.0399 82.057 71.8151 82.1807 71.5495L84.6991 66.1385C84.7558 66.0165 84.7852 65.8836 84.7852 65.7491V34.2139C84.784 33.1536 84.3623 32.1371 83.6126 31.3874C82.8629 30.6377 81.8464 30.216 80.7862 30.2148ZM39.6064 41.4943H35.682L41.1445 36.0319V39.9562C41.1441 40.364 40.9819 40.755 40.6935 41.0433C40.4052 41.3317 40.0142 41.4938 39.6064 41.4943ZM82.9395 65.5448L80.7862 70.1714L78.6328 65.5448V41.2891H82.9395V65.5448ZM82.9395 39.4434H78.6328V37.5977H82.9395V39.4434ZM82.9395 35.752H78.6328V34.2139C78.6328 33.6428 78.8597 33.0951 79.2635 32.6912C79.6674 32.2874 80.2151 32.0605 80.7862 32.0605C81.3573 32.0605 81.905 32.2874 82.3088 32.6912C82.7126 33.0951 82.9395 33.6428 82.9395 34.2139V35.752Z" fill="white"/>
</g>
<defs>
<clipPath id="clip0_59_3">
<rect width="118" height="118" fill="white"/>
</clipPath>
</defs>
</svg>
