<svg width="118" height="118" viewBox="0 0 118 118" fill="none" xmlns="http://www.w3.org/2000/svg">
<g clip-path="url(#clip0_59_40)">
<path d="M116.979 51.775L108.177 48.3876C106.902 42.4464 104.584 36.8526 101.276 31.7367L105.106 23.1119C105.374 22.5092 105.242 21.8033 104.776 21.3373L96.6632 13.2241C96.196 12.7569 95.489 12.6272 94.8891 12.8945L86.2601 16.7267C81.1451 13.4186 75.5537 11.1001 69.6145 9.82511L66.2245 1.02213C65.9878 0.406547 65.396 0 64.7368 0H53.2632C52.604 0 52.0122 0.406547 51.7755 1.02213L48.386 9.82511C42.4477 11.1001 36.8552 13.4181 31.7392 16.7267L23.1112 12.8945C22.511 12.6272 21.803 12.7569 21.337 13.2241L13.2238 21.3375C12.7576 21.8037 12.6258 22.5097 12.8938 23.1121L16.7256 31.7385C13.417 36.8549 11.0989 42.4475 9.82396 48.3867L1.02144 51.7746C0.405855 52.0122 0 52.6033 0 53.2632V64.7368C0 65.396 0.405855 65.9878 1.02144 66.2245L9.82281 69.6131C11.0978 75.5534 13.4158 81.1469 16.7253 86.2628L12.8936 94.8877C12.6258 95.4908 12.7576 96.1967 13.2236 96.663L21.3368 104.776C21.803 105.242 22.5078 105.373 23.1121 105.106L31.739 101.273C36.857 104.583 42.4484 106.901 48.3858 108.175L51.7753 116.978C52.012 117.594 52.6038 118 53.2629 118H64.7366C65.3957 118 65.9876 117.594 66.2243 116.978L69.6129 108.177C75.5532 106.902 81.1467 104.584 86.2626 101.274L94.8874 105.106C95.4897 105.373 96.1956 105.242 96.6627 104.776L104.776 96.663C105.242 96.1967 105.374 95.4908 105.106 94.8877L101.273 86.2596C104.583 81.1437 106.9 75.5523 108.175 69.614L116.978 66.2245C117.594 65.9878 118 65.396 118 64.7368V53.2632C118 52.6033 117.594 52.0122 116.979 51.775ZM114.811 63.6416L106.215 66.9512C105.703 67.1473 105.33 67.5937 105.224 68.1316C104.019 74.2639 101.636 80.0132 98.1391 85.2216C97.834 85.6763 97.7831 86.2555 98.0052 86.757L101.747 95.1827L95.1824 101.747L86.76 98.0064C86.2605 97.7854 85.6793 97.834 85.2246 98.1403C80.0162 101.638 74.2658 104.021 68.1305 105.227C67.5928 105.333 67.1464 105.706 66.95 106.218L63.6414 114.811H54.3584L51.0488 106.215C50.8527 105.703 50.4063 105.33 49.8684 105.224C43.737 104.02 37.9868 101.636 32.7773 98.1394C32.3226 97.8331 31.7413 97.7842 31.2419 98.0054L22.8173 101.747L16.2531 95.1827L19.9936 86.7602C20.2158 86.2598 20.1649 85.6795 19.8597 85.2248C16.3621 80.0164 13.9786 74.266 12.7733 68.1307C12.6675 67.593 12.2937 67.1466 11.7818 66.9502L3.18923 63.6416V54.3579L11.7841 51.0498C12.296 50.8525 12.6696 50.4065 12.7756 49.8688C13.9798 43.7354 16.3635 37.9847 19.8609 32.7773C20.166 32.3221 20.2169 31.7418 19.9948 31.2407L16.2533 22.8185L22.8176 16.2533L31.2412 19.9948C31.7427 20.2186 32.323 20.1681 32.7777 19.8613C37.9861 16.3649 43.7365 13.9807 49.8688 12.776C50.4065 12.6707 50.8529 12.296 51.0493 11.7846L54.3588 3.18923H63.6419L66.9514 11.7846C67.1475 12.2957 67.5939 12.6707 68.1319 12.776C74.2653 13.9814 80.0155 16.3654 85.2218 19.8613C85.6765 20.1681 86.2589 20.2186 86.7572 19.9948L95.1829 16.2533L101.747 22.818L98.0066 31.2389C97.7844 31.7397 97.8354 32.32 98.1405 32.7754C101.637 37.9822 104.022 43.7342 105.227 49.8695C105.333 50.4072 105.707 50.8532 106.218 51.0504L114.811 54.3579L114.811 63.6416Z" fill="white"/>
<path d="M35 81.5C34.1714 81.5 33.5 80.8281 33.5 80V44.6299C33.5 43.8018 34.1714 43.1299 35 43.1299C35.8286 43.1299 36.5 43.8018 36.5 44.6299V80C36.5 80.8281 35.8286 81.5 35 81.5Z" fill="white"/>
<path d="M77 56.5C76.1719 56.5 75.5 55.8281 75.5 55V44.6299C75.5 43.8018 76.1719 43.1299 77 43.1299C77.8281 43.1299 78.5 43.8018 78.5 44.6299V55C78.5 55.8281 77.8281 56.5 77 56.5Z" fill="white"/>
<path d="M79.999 47.9297C79.7354 47.9297 79.4688 47.8604 79.2276 47.7149L56 33.75L32.773 47.7148C32.064 48.1416 31.1421 47.9131 30.7144 47.2021C30.2876 46.4922 30.5171 45.5713 31.2271 45.1445L55.2271 30.7148C55.7027 30.4277 56.2974 30.4277 56.773 30.7148L80.7725 45.1445C81.4824 45.5713 81.7129 46.4922 81.2852 47.2022C81.0039 47.6709 80.5078 47.9297 79.999 47.9297Z" fill="white"/>
<path d="M72.999 81.5H32C31.1714 81.5 30.5 80.8281 30.5 80C30.5 79.1719 31.1714 78.5 32 78.5H72.999C73.8271 78.5 74.499 79.1719 74.499 80C74.499 80.8281 73.8271 81.5 72.999 81.5Z" fill="white"/>
<path d="M56 71.5C55.1714 71.5 54.5 70.8281 54.5 70V48C54.5 47.1719 55.1714 46.5 56 46.5C56.8286 46.5 57.5 47.1719 57.5 48V70C57.5 70.8281 56.8286 71.5 56 71.5Z" fill="white"/>
<path d="M68.2305 71.5H45C44.1714 71.5 43.5 70.8281 43.5 70V48C43.5 47.1719 44.1714 46.5 45 46.5H67C67.8281 46.5 68.5 47.1719 68.5 48V59C68.5 59.8281 67.8281 60.5 67 60.5H46.5V68.5H68.2305C69.0586 68.5 69.7305 69.1719 69.7305 70C69.7305 70.8281 69.0586 71.5 68.2305 71.5ZM46.5 57.5H65.5V49.5H46.5V57.5Z" fill="white"/>
<path d="M81 87.5H73C72.1719 87.5 71.5 86.8281 71.5 86V76.9356C68.3935 75.0313 66.5 71.6875 66.5 68C66.5 63.9942 68.7344 60.3936 72.332 58.6035C72.7969 58.3721 73.3486 58.3975 73.79 58.6709C74.2314 58.9443 74.5 59.4268 74.5 59.9463V66C74.5 67.3789 75.6211 68.5 77 68.5C78.3789 68.5 79.5 67.3789 79.5 66V59.9463C79.5 59.4268 79.7686 58.9444 80.21 58.6709C80.6523 58.3975 81.2041 58.3721 81.668 58.6035C85.2656 60.3936 87.5 63.9942 87.5 68C87.5 71.6875 85.6065 75.0313 82.5 76.9356V86C82.5 86.8281 81.8281 87.5 81 87.5ZM74.5 84.5H79.5V76.0537C79.5 75.4844 79.8223 74.9649 80.332 74.711C82.9023 73.4317 84.5 70.8594 84.5 68C84.5 66.0654 83.7686 64.2627 82.5 62.9023V66C82.5 69.0322 80.0322 71.5 77 71.5C73.9678 71.5 71.5 69.0322 71.5 66V62.9023C70.2314 64.2627 69.5 66.0654 69.5 68C69.5 70.8594 71.0977 73.4317 73.668 74.711C74.1777 74.9649 74.5 75.4844 74.5 76.0537V84.5Z" fill="white"/>
</g>
<defs>
<clipPath id="clip0_59_40">
<rect width="118" height="118" fill="white"/>
</clipPath>
</defs>
</svg>
